<svg width="16" height="16" viewBox="0 0 16 16" fill="none" xmlns="http://www.w3.org/2000/svg">
<path id="icon/info" fill-rule="evenodd" clip-rule="evenodd" d="M8 0C12.4183 0 16 3.58172 16 8C16 12.4183 12.4183 16 8 16C3.58172 16 0 12.4183 0 8C0 3.58172 3.58172 0 8 0ZM8 1.14286C4.2129 1.14286 1.14286 4.2129 1.14286 8C1.14286 11.7871 4.2129 14.8571 8 14.8571C11.7871 14.8571 14.8571 11.7871 14.8571 8C14.8571 4.2129 11.7871 1.14286 8 1.14286ZM8.24594 10.1513C8.25338 9.74953 8.28128 9.45935 8.32965 9.28078C8.37801 9.10221 8.45241 8.9441 8.55286 8.80645C8.65331 8.6688 8.86722 8.45489 9.1946 8.16471C9.68195 7.73316 10.0093 7.36672 10.1767 7.06538C10.3442 6.76404 10.4279 6.4348 10.4279 6.07766C10.4279 5.4601 10.1898 4.93368 9.71357 4.49842C9.23738 4.06315 8.59936 3.84551 7.79951 3.84551C7.0443 3.84551 6.43697 4.04827 5.97753 4.45377C5.51808 4.85928 5.24185 5.44336 5.14884 6.20601L6.18121 6.32877C6.27049 5.75958 6.45837 5.34105 6.74482 5.07319C7.03128 4.80534 7.38843 4.67141 7.81625 4.67141C8.25896 4.67141 8.63284 4.81929 8.9379 5.11505C9.24296 5.4108 9.39549 5.754 9.39549 6.14462C9.39549 6.36039 9.34341 6.55943 9.23924 6.74172C9.13508 6.92401 8.90907 7.16862 8.56123 7.47554C8.21339 7.78246 7.9725 8.0159 7.83857 8.17587C7.65628 8.39536 7.52421 8.613 7.44237 8.82877C7.33076 9.11523 7.27496 9.45563 7.27496 9.84998C7.27496 9.91694 7.27682 10.0174 7.28054 10.1513H8.24594ZM8.36313 12.1658V11.0219H7.21915V12.1658H8.36313Z" fill="#333333"/>
</svg>
